<?xml version="1.0" standalone="no"?>
<!DOCTYPE svg PUBLIC "-//W3C//DTD SVG 20010904//EN"
 "http://www.w3.org/TR/2001/REC-SVG-20010904/DTD/svg10.dtd">
<svg version="1.0" xmlns="http://www.w3.org/2000/svg"
 width="609.000000pt" height="609.000000pt" viewBox="0 0 609.000000 609.000000"
 preserveAspectRatio="xMidYMid meet">
<metadata>
Created by potrace 1.14, written by Peter Selinger 2001-2017
</metadata>
<g transform="translate(0.000000,609.000000) scale(0.100000,-0.100000)"
fill="#000000" stroke="none">
<path d="M3330 5382 c-39 -4 -63 -19 -53 -35 3 -5 1 -7 -5 -3 -6 3 -13 2 -17
-3 -3 -5 -13 -9 -23 -9 -36 1 -76 -12 -99 -34 -14 -13 -27 -22 -30 -21 -13 5
-31 39 -24 48 4 5 7 19 7 30 -1 19 -9 20 -150 23 -103 2 -153 -1 -163 -9 -10
-9 -17 -9 -25 -1 -7 7 -42 12 -79 12 -62 0 -73 -3 -126 -39 -39 -26 -62 -36
-70 -29 -7 6 -14 5 -18 -2 -3 -5 -16 -8 -28 -5 -32 8 -79 -38 -73 -71 3 -14
-1 -44 -8 -67 -8 -26 -10 -52 -5 -65 5 -12 5 -22 0 -22 -4 0 -14 -11 -21 -25
-7 -14 -15 -23 -18 -21 -2 3 -23 -4 -47 -14 -24 -10 -46 -16 -49 -13 -3 4 -6
1 -6 -6 0 -7 -4 -10 -9 -6 -5 3 -15 -1 -23 -8 -7 -7 -20 -13 -28 -13 -20 -1
-70 -25 -70 -34 0 -4 -16 -11 -35 -14 -19 -4 -35 -10 -35 -14 0 -4 -18 -15
-40 -25 -22 -9 -40 -22 -40 -28 0 -5 -4 -8 -9 -5 -10 6 -101 -49 -137 -83 -12
-11 -24 -18 -26 -16 -4 4 -101 -66 -148 -108 -16 -15 -30 -25 -30 -22 0 5 -21
-15 -156 -145 -29 -28 -49 -50 -46 -50 3 0 -6 -10 -21 -22 -27 -24 -78 -85
-112 -133 -11 -15 -28 -36 -37 -47 -10 -10 -18 -22 -18 -28 0 -5 -4 -10 -9
-10 -4 0 -19 -20 -32 -45 -13 -25 -27 -45 -31 -45 -5 0 -8 -7 -8 -15 0 -8 -4
-15 -9 -15 -5 0 -14 -14 -20 -30 -5 -17 -17 -38 -26 -46 -8 -9 -13 -20 -10
-25 4 -5 2 -9 -3 -9 -9 0 -37 -50 -34 -62 1 -5 -2 -8 -8 -8 -5 0 -10 -9 -10
-20 0 -11 -4 -20 -10 -20 -5 0 -10 -8 -10 -18 0 -10 -6 -27 -14 -38 -8 -11
-16 -29 -18 -39 -1 -11 -5 -22 -8 -25 -11 -10 -60 -153 -55 -160 3 -5 0 -10
-6 -12 -6 -2 -13 -17 -14 -32 -2 -16 -7 -32 -12 -35 -4 -3 -9 -15 -9 -26 -2
-21 -11 -70 -14 -70 -2 0 -2 -2 -28 -140 -10 -55 -17 -112 -17 -127 1 -16 -1
-28 -5 -28 -4 0 -7 -24 -8 -52 -4 -116 -2 -365 3 -398 12 -85 18 -136 17 -152
0 -10 3 -18 8 -18 5 0 7 -6 5 -13 -3 -7 -1 -35 5 -62 27 -126 43 -189 49 -195
4 -3 7 -10 8 -16 9 -48 13 -63 26 -94 24 -60 30 -75 32 -80 8 -31 25 -71 68
-160 27 -58 49 -107 48 -109 -2 -2 2 -7 7 -10 12 -8 47 -74 44 -84 -1 -5 2 -6
8 -2 5 3 10 2 10 -3 0 -5 18 -37 40 -71 22 -33 39 -64 39 -67 0 -3 8 -13 18
-22 10 -9 34 -37 53 -62 19 -25 38 -46 42 -48 4 -2 8 -8 8 -13 0 -20 307 -315
342 -327 5 -2 23 -17 41 -33 17 -16 35 -29 40 -29 5 0 14 -6 21 -13 21 -19 53
-40 60 -38 4 1 16 -8 28 -19 12 -11 44 -31 72 -46 68 -36 90 -48 96 -54 3 -3
16 -10 30 -17 14 -6 48 -22 75 -34 28 -13 52 -24 55 -24 3 -1 23 -9 45 -19 91
-39 324 -110 334 -101 2 3 10 0 17 -6 8 -6 21 -9 29 -5 8 3 15 1 15 -5 0 -5 6
-9 13 -8 6 1 35 -2 62 -6 28 -5 58 -10 68 -11 9 -1 18 -3 20 -4 18 -16 582
-16 582 0 0 1 14 3 30 5 17 1 30 3 30 4 0 1 18 4 40 7 42 4 80 11 80 14 0 1 9
3 20 5 26 3 58 11 125 30 30 9 63 18 73 20 25 6 134 45 177 63 19 9 37 16 40
17 3 1 23 9 45 18 22 10 43 16 47 15 4 -2 14 6 22 17 9 11 16 17 16 13 0 -4
15 1 33 12 17 11 49 28 70 37 20 10 37 21 37 25 0 5 5 8 11 8 12 0 152 91 157
103 2 4 8 5 13 1 5 -3 9 -1 9 4 0 5 17 21 38 35 96 66 360 317 355 338 -2 5 5
9 14 9 9 0 14 3 11 6 -3 3 6 18 20 33 15 16 34 38 42 51 8 12 20 28 26 34 5 6
19 26 29 43 11 18 22 33 26 33 4 0 10 11 13 25 4 14 11 25 16 25 6 0 10 7 10
15 0 8 4 15 9 15 7 0 13 14 21 48 1 4 8 11 16 15 8 4 14 14 14 21 0 7 8 24 19
37 10 13 19 27 19 32 1 4 17 41 36 81 20 41 36 82 36 90 0 9 4 16 9 16 7 0 23
45 25 75 1 6 6 13 13 18 7 4 10 14 7 22 -4 8 -2 15 3 15 5 0 10 12 11 26 1 14
5 31 9 37 4 7 8 17 9 22 2 6 11 46 23 90 11 44 21 94 22 110 2 17 7 35 11 41
4 6 10 33 12 60 3 27 8 78 12 114 8 72 8 396 0 475 -10 98 -22 180 -26 180 -1
0 -4 14 -6 30 -2 17 -7 41 -11 55 -13 53 -23 96 -30 133 -3 15 -8 27 -12 27
-4 0 -8 11 -9 25 -1 14 -9 39 -17 55 -9 17 -13 30 -11 30 6 0 -43 118 -90 217
-19 40 -34 77 -34 83 0 5 -4 10 -8 10 -4 0 -21 27 -37 60 -17 33 -33 60 -37
60 -5 0 -8 7 -8 15 0 8 -4 15 -10 15 -5 0 -10 5 -10 11 0 9 -45 80 -76 119 -7
8 -40 50 -75 93 -56 72 -259 283 -259 270 0 -3 -13 9 -29 26 -16 17 -32 31
-35 31 -3 0 -14 8 -24 18 -38 36 -72 62 -72 54 0 -4 -5 1 -11 11 -5 9 -15 17
-22 17 -7 0 -25 11 -41 25 -16 14 -35 25 -43 25 -7 0 -13 4 -13 9 0 5 -12 16
-27 23 -44 22 -77 42 -95 57 -10 8 -18 10 -18 5 0 -5 -4 -4 -8 1 -4 6 -37 25
-73 42 -36 17 -72 37 -80 45 -27 26 -89 59 -99 53 -6 -3 -17 1 -26 9 -8 9 -12
16 -8 16 3 0 1 7 -6 16 -8 8 -25 14 -39 12 -14 -1 -32 1 -39 5 -6 5 -15 6 -20
3 -4 -2 -22 2 -39 9 -23 10 -31 19 -27 29 3 9 10 13 15 10 5 -3 5 5 0 19 -7
18 -5 27 7 38 9 8 20 14 23 14 10 0 64 51 67 64 2 8 0 26 -3 42 -5 23 -14 29
-56 39 -27 7 -49 16 -49 21 0 8 -293 17 -360 11z"/>
</g>
</svg>
