<?xml version="1.0" standalone="no"?>
<!DOCTYPE svg PUBLIC "-//W3C//DTD SVG 20010904//EN"
 "http://www.w3.org/TR/2001/REC-SVG-20010904/DTD/svg10.dtd">
<svg version="1.0" xmlns="http://www.w3.org/2000/svg"
 width="590.000000pt" height="590.000000pt" viewBox="0 0 590.000000 590.000000"
 preserveAspectRatio="xMidYMid meet">
<metadata>
Created by potrace 1.14, written by Peter Selinger 2001-2017
</metadata>
<g transform="translate(0.000000,590.000000) scale(0.100000,-0.100000)"
fill="#000000" stroke="none">
<path d="M3848 5762 c10 -3 8 -8 -5 -19 -10 -8 -12 -12 -6 -8 8 4 11 1 7 -9
-3 -8 -20 -16 -37 -18 -17 -2 -32 -9 -35 -17 -3 -10 2 -11 19 -6 23 7 23 6 5
-7 -10 -8 -16 -19 -13 -25 4 -6 -4 -8 -20 -5 -18 3 -24 1 -19 -6 5 -8 2 -10
-8 -6 -9 3 -13 11 -9 17 4 6 1 7 -8 1 -17 -10 -32 -13 -79 -16 -19 -1 -29 -3
-22 -6 6 -2 12 -11 13 -20 0 -14 2 -13 9 3 8 18 9 18 9 2 1 -11 6 -16 14 -12
6 4 4 0 -6 -8 -9 -8 -28 -13 -42 -12 -14 2 -25 -1 -25 -6 0 -5 -12 -7 -27 -4
-32 5 -62 -8 -44 -19 6 -4 11 -2 11 4 0 6 4 9 9 5 17 -10 -34 -55 -57 -50 -12
2 -22 -1 -22 -7 0 -5 -7 -8 -15 -5 -8 4 -17 2 -20 -4 -4 -5 -3 -9 2 -8 21 4
33 -2 33 -16 0 -8 -5 -15 -11 -15 -8 0 -7 -6 2 -17 13 -16 12 -17 -3 -4 -10 7
-18 10 -18 5 0 -5 -7 0 -15 10 -13 18 -15 18 -16 3 -4 -45 -2 -52 10 -49 7 1
10 -1 7 -6 -2 -4 -22 -8 -43 -7 -32 0 -39 4 -41 23 -2 12 1 22 7 22 5 0 8 -9
6 -19 -2 -12 2 -18 11 -17 8 1 13 5 12 8 -2 3 3 12 10 20 10 13 10 17 -3 22
-8 3 -22 3 -31 -1 -9 -3 -20 0 -25 8 -7 11 -9 11 -9 -2 0 -19 -26 -33 -35 -18
-4 5 -1 8 6 7 6 -2 14 3 16 10 3 7 -1 10 -10 7 -17 -7 -43 20 -27 30 18 11 11
21 -16 23 -15 1 -34 -4 -42 -10 -13 -11 -14 -11 -8 0 6 9 1 12 -16 10 -12 -2
-29 -7 -37 -12 -9 -6 -12 -5 -8 0 5 9 -90 12 -118 4 -5 -1 -12 -2 -15 -2 -3 0
-7 -9 -7 -20 -2 -20 -1 -20 12 -2 14 18 15 18 12 -5 -3 -16 -11 -25 -26 -28
-13 -2 -20 1 -16 7 3 5 2 10 -4 10 -5 0 -15 -8 -20 -17 -8 -13 -10 -14 -11 -4
0 11 -4 10 -16 -5 -8 -10 -13 -13 -9 -6 4 7 0 12 -9 12 -23 0 -28 -18 -9 -30
15 -9 13 -10 -12 -5 -28 6 -29 5 -11 -8 19 -14 19 -14 -7 -14 -15 0 -24 3 -21
8 3 5 0 9 -5 9 -6 0 -11 -4 -11 -10 0 -24 -38 -8 -50 20 -13 31 -17 33 -107
32 -30 -1 -43 3 -43 13 0 19 -12 24 -35 14 -18 -9 -18 -9 3 -5 13 2 22 -1 22
-8 0 -6 -9 -12 -20 -12 -11 0 -20 4 -20 8 0 4 -7 5 -15 2 -8 -4 -15 -1 -15 6
0 6 5 8 12 4 8 -5 9 -2 5 10 -4 10 -3 15 3 11 5 -3 18 -1 27 5 15 10 15 11 1
6 -9 -2 -19 -2 -22 1 -3 4 -18 8 -33 9 -27 3 -27 2 -9 -12 11 -8 15 -14 9 -14
-6 0 -16 7 -23 15 -7 8 -16 12 -21 9 -5 -3 -9 3 -9 13 0 10 -4 14 -8 8 -11
-16 -32 -16 -32 -1 0 19 -27 28 -34 10 -3 -8 0 -14 6 -14 6 0 9 -2 6 -5 -8 -8
-38 6 -38 17 0 5 4 7 9 4 5 -3 11 1 15 9 4 12 11 13 31 5 15 -6 31 -8 35 -5 5
3 13 -3 19 -12 6 -10 11 -13 11 -7 0 17 -22 33 -38 27 -8 -4 -13 -2 -10 3 9
13 -45 14 -61 1 -11 -9 -13 -9 -8 0 4 6 3 14 -3 18 -5 3 -10 0 -10 -7 0 -10
-2 -11 -8 0 -5 7 -16 10 -24 7 -9 -4 -19 -2 -23 4 -3 6 -11 11 -16 11 -6 0 -7
-5 -3 -12 4 -7 3 -8 -5 -4 -8 6 -5 15 14 31 32 30 32 37 0 25 -13 -5 -26 -6
-29 -2 -2 4 -26 6 -53 4 -26 -1 -65 -3 -85 -3 -26 0 -38 -5 -38 -15 0 -8 8
-14 18 -14 14 0 15 2 2 10 -8 5 -10 10 -5 10 6 0 17 -5 25 -10 11 -7 11 -10 2
-10 -7 0 -10 -5 -6 -12 4 -7 3 -8 -4 -4 -7 4 -12 2 -12 -3 0 -6 -5 -11 -11
-11 -5 0 -7 5 -3 11 3 6 -4 5 -17 -3 -21 -13 -43 -15 -74 -8 -21 5 -45 0 -45
-10 0 -5 8 -7 18 -4 14 5 15 4 2 -5 -11 -8 -18 -7 -26 4 -10 14 -34 21 -34 11
0 -3 5 -17 10 -32 9 -24 9 -25 -5 -14 -13 11 -14 10 -9 -5 6 -15 4 -16 -16 -5
-15 8 -20 8 -16 1 4 -6 3 -11 -3 -11 -5 0 -11 6 -14 13 -2 6 -4 -10 -2 -38 1
-27 5 -59 9 -70 6 -16 6 -17 -3 -5 -9 12 -11 11 -11 -8 0 -13 -4 -20 -10 -17
-6 3 -7 -1 -4 -9 3 -9 11 -13 18 -9 7 4 7 1 -1 -9 -7 -8 -10 -18 -6 -21 3 -4
-138 -8 -315 -8 -385 -2 -392 -2 -392 -11 0 -8 22 -12 50 -9 13 2 13 0 1 -8
-8 -5 -19 -7 -26 -5 -8 3 -11 -7 -10 -31 1 -19 -1 -33 -4 -29 -3 3 -6 11 -6
17 0 7 -8 11 -18 11 -9 -1 -15 2 -12 6 3 5 1 11 -4 15 -6 3 -8 -3 -6 -15 2
-11 -1 -20 -7 -20 -7 0 -6 -6 2 -15 10 -12 10 -15 0 -15 -10 0 -10 -3 0 -15 7
-8 9 -15 4 -15 -11 0 -11 -411 0 -428 4 -7 3 -12 -1 -12 -12 0 -9 -48 4 -61 6
-6 19 -9 29 -6 16 4 16 5 -3 6 -12 0 -24 5 -28 10 -3 5 7 8 22 7 l28 -3 3
-102 c3 -74 0 -107 -10 -119 -8 -10 -8 -13 -1 -9 6 4 15 2 19 -4 4 -8 3 -9 -4
-5 -8 5 -12 -1 -13 -16 0 -23 0 -23 -9 -2 -5 12 -15 25 -22 29 -10 6 -11 5 0
-6 20 -22 15 -24 -51 -24 -34 0 -68 -3 -74 -8 -9 -6 -13 -5 -13 2 0 9 -5 9
-20 1 -11 -6 -20 -7 -20 -3 0 4 -22 8 -50 9 -32 0 -47 -3 -43 -10 5 -8 3 -8
-8 0 -16 12 -227 13 -246 1 -8 -5 -13 -3 -13 3 0 8 -6 8 -20 0 -11 -6 -20 -7
-20 -2 0 11 -55 10 -66 -1 -11 -11 -13 -127 -2 -120 6 3 5 -4 -1 -15 -14 -27
-14 -35 1 -26 7 5 8 3 2 -7 -12 -20 -13 -120 -1 -112 6 4 7 1 2 -7 -11 -18
-13 -80 -2 -80 4 0 6 -3 4 -7 -3 -5 7 -9 21 -10 l27 -1 -25 14 c-14 7 -21 13
-17 14 26 1 45 -22 42 -50 -2 -16 -1 -30 3 -30 4 0 8 -9 8 -20 0 -11 -3 -20
-6 -20 -8 0 -5 -84 4 -98 4 -7 2 -12 -5 -12 -8 0 -9 -4 0 -13 7 -10 7 -17 0
-24 -8 -8 -7 -13 1 -18 8 -5 8 -10 -1 -21 -6 -8 -7 -14 -2 -14 5 0 9 -9 9 -20
0 -11 -3 -20 -6 -20 -3 0 -6 -9 -6 -20 0 -11 4 -20 8 -20 4 0 3 -11 -2 -24 -6
-17 -5 -26 3 -30 8 -3 8 -5 -2 -5 -11 -1 -11 -4 -1 -16 7 -8 9 -15 4 -15 -5 0
-9 -54 -9 -120 0 -66 4 -120 8 -120 5 0 5 -6 1 -12 -12 -20 -12 -48 0 -41 6 4
5 -1 -3 -10 -9 -12 -10 -17 -2 -17 7 0 9 -5 5 -12 -11 -18 -12 -48 -2 -48 5 0
6 -6 2 -12 -14 -22 -11 -48 5 -49 10 0 12 -2 4 -6 -24 -9 -13 -21 17 -19 18 1
29 -2 27 -8 -3 -6 0 -19 5 -28 5 -10 5 -18 1 -18 -15 0 -1 -94 16 -106 9 -7
13 -16 8 -20 -4 -4 -7 -2 -7 4 0 7 -4 12 -8 12 -20 0 -6 -29 16 -33 20 -4 23
-1 18 16 -3 14 -2 17 6 9 15 -15 18 -73 4 -65 -8 4 -8 2 0 -6 6 -7 21 -13 33
-14 11 -1 21 -6 21 -12 0 -5 5 -3 11 5 8 12 10 8 7 -17 -4 -29 -2 -32 29 -35
19 -2 33 1 33 7 0 6 3 6 8 -1 4 -6 16 -10 27 -8 11 2 26 -4 34 -14 12 -15 13
-15 8 0 -6 16 -1 17 52 9 3 -1 0 -6 -7 -13 -6 -6 -8 -17 -3 -27 5 -9 8 -44 7
-78 -1 -37 2 -59 8 -56 5 4 6 1 1 -8 -13 -20 -13 -119 0 -112 5 3 4 0 -2 -7
-10 -11 -9 -18 5 -34 9 -11 12 -16 5 -13 -18 11 -24 -8 -13 -37 5 -14 6 -26 1
-26 -4 0 -8 -7 -8 -15 0 -8 7 -15 14 -15 9 0 11 5 7 13 -5 7 2 6 16 -4 13 -9
26 -22 29 -30 3 -12 1 -11 -15 1 -17 14 -18 14 -6 -2 8 -10 10 -23 6 -30 -6
-11 -5 -11 8 0 14 11 15 9 8 -22 -8 -37 -5 -47 25 -65 l20 -12 -20 5 c-16 5
-20 1 -21 -19 -2 -25 19 -35 31 -15 11 17 31 -13 31 -45 -1 -20 4 -30 14 -30
37 -2 46 -15 46 -65 -1 -28 3 -50 8 -50 5 0 15 -8 22 -17 13 -17 14 -17 8 0
-9 24 9 21 32 -5 10 -13 12 -18 4 -11 -12 9 -19 6 -34 -15 -20 -27 -20 -27 0
-10 16 14 23 15 32 6 11 -11 31 -18 59 -20 9 -1 10 -5 2 -14 -6 -7 -7 -19 -3
-25 5 -9 2 -10 -12 -5 -18 7 -18 6 1 -12 14 -13 22 -16 28 -8 5 8 10 7 16 -3
7 -11 10 -11 12 3 3 11 8 4 15 -19 11 -35 11 -35 -9 -18 -19 18 -20 17 -6 -4
16 -26 18 -27 52 -14 26 10 31 1 13 -27 -4 -7 -4 -11 1 -10 4 2 9 -1 11 -7 1
-5 -2 -10 -7 -10 -5 0 -12 -3 -15 -6 -3 -3 12 -5 34 -5 37 1 45 -4 41 -27 -1
-5 4 -5 10 -1 7 4 9 0 5 -13 -4 -12 -2 -20 6 -20 7 -1 34 -2 61 -4 26 -1 47
-7 47 -13 0 -6 4 -5 9 3 7 10 9 7 8 -11 -1 -15 -7 -24 -13 -21 -7 2 -14 0 -18
-5 -5 -9 6 -11 57 -13 24 0 28 -4 24 -20 -4 -14 -1 -19 7 -16 7 3 13 -1 13 -8
0 -10 -7 -11 -26 -3 -18 6 -23 6 -16 -1 6 -6 28 -13 49 -16 30 -5 36 -4 30 7
-6 11 -5 11 9 0 9 -8 21 -11 26 -8 5 4 13 1 17 -5 4 -8 9 -7 15 2 6 10 9 11 9
2 0 -7 -10 -23 -22 -35 -15 -15 -17 -20 -5 -15 9 3 19 2 23 -4 3 -6 26 -8 50
-6 24 2 44 -1 44 -6 0 -5 7 -6 16 -3 13 5 15 1 10 -19 -4 -15 -2 -25 4 -25 6
0 9 -4 6 -9 -3 -5 12 -8 34 -8 22 0 43 -3 47 -8 5 -4 3 -5 -4 -1 -12 6 -26 -8
-29 -31 -1 -7 7 -15 17 -18 16 -5 18 -9 8 -21 -10 -12 -9 -13 5 -8 10 4 15 12
12 20 -3 8 2 12 13 11 9 0 18 -9 18 -19 1 -10 -2 -16 -8 -13 -5 4 -9 1 -9 -4
0 -6 5 -11 10 -11 6 0 10 -20 10 -45 0 -43 1 -45 25 -41 14 3 25 0 25 -5 0 -5
-6 -9 -12 -8 -32 4 -39 -2 -36 -28 2 -21 9 -28 26 -29 21 -1 21 0 7 16 -22 25
-18 33 5 10 15 -15 20 -34 21 -87 0 -38 0 -72 -1 -78 -1 -5 -2 -14 -1 -19 1
-5 -1 -16 -4 -24 -4 -11 -8 -12 -20 -2 -8 7 -15 9 -15 4 0 -5 -5 -2 -10 6 -8
12 -10 11 -10 -7 0 -12 -6 -24 -12 -26 -10 -4 -10 -6 0 -6 6 -1 12 -6 12 -12
0 -6 -7 -8 -16 -5 -15 6 -15 4 -3 -10 13 -16 12 -16 -7 -6 -12 6 -24 9 -27 6
-3 -4 -21 -7 -39 -8 -34 -2 -42 -16 -26 -48 7 -14 5 -16 -9 -11 -16 6 -17 5
-3 -12 14 -17 13 -18 -5 -12 -18 7 -19 6 -3 -6 10 -8 15 -17 11 -21 -11 -11
-11 -86 0 -86 5 0 4 -7 -3 -15 -10 -12 -9 -20 5 -41 9 -15 13 -24 7 -20 -6 3
-9 -17 -9 -53 1 -49 3 -58 16 -54 14 4 14 3 0 -9 -18 -15 -22 -51 -5 -45 23 9
50 -10 53 -39 3 -23 2 -27 -8 -16 -7 6 -17 12 -23 12 -5 0 -1 -6 9 -14 11 -8
26 -11 34 -8 8 3 12 1 8 -5 -3 -5 0 -10 8 -10 8 0 12 4 10 8 -3 4 6 6 20 5
l25 -1 -23 -17 c-12 -10 -16 -18 -10 -18 7 0 12 -5 10 -11 -3 -14 60 -21 69
-8 3 5 11 6 17 2 7 -4 35 -9 62 -11 83 -5 93 -7 102 -16 5 -5 0 -6 -12 -3 -19
7 -19 6 -2 -7 12 -9 17 -27 17 -59 0 -40 3 -46 20 -44 11 1 20 5 20 9 0 4 5 8
11 8 5 0 8 -4 5 -9 -7 -11 22 -23 36 -14 7 4 8 1 4 -6 -5 -7 -15 -10 -24 -6
-9 3 -13 3 -9 -1 4 -4 1 -14 -6 -23 -11 -14 -10 -14 6 -2 15 12 17 12 12 -1
-4 -11 2 -15 24 -15 17 0 28 5 24 10 -3 6 -1 7 5 3 22 -13 55 -16 69 -5 7 7
13 7 13 2 0 -11 90 -11 108 0 6 5 12 4 12 0 0 -11 90 -11 108 0 6 5 12 4 12 0
0 -11 90 -11 108 0 6 5 12 4 12 0 0 -11 90 -11 108 0 6 5 12 4 12 0 0 -11 90
-11 108 0 6 5 12 4 12 0 0 -11 90 -11 108 0 7 5 12 4 12 -2 0 -6 18 -11 40
-11 25 0 40 -5 40 -12 0 -9 4 -8 10 2 6 9 10 10 10 3 0 -6 -4 -15 -10 -18 -5
-3 -10 -12 -10 -19 0 -16 32 -17 42 -2 5 8 8 7 8 -2 0 -18 325 -15 340 3 8 9
8 15 0 20 -16 10 -12 22 10 28 11 3 20 1 20 -4 0 -5 -5 -9 -12 -9 -6 0 -8 -3
-5 -7 4 -3 16 2 26 11 11 10 25 15 31 11 7 -4 4 5 -5 19 -10 15 -14 26 -9 25
5 -1 21 1 36 5 24 7 27 12 23 36 -3 16 0 32 7 36 7 5 8 3 3 -7 -5 -8 2 -5 15
6 l23 20 -7 -22 c-5 -14 -3 -23 3 -23 6 0 10 3 10 8 -1 4 0 9 1 12 7 17 8 90
1 90 -5 0 -8 -11 -7 -25 2 -13 -1 -22 -5 -19 -11 6 -6 43 7 52 11 8 12 22 1
40 -5 7 -3 12 4 12 7 0 9 3 6 7 -4 3 -16 -2 -26 -11 -20 -18 -41 -14 -41 7 0
7 4 6 10 -3 8 -13 10 -13 10 2 0 9 -4 19 -8 22 -5 3 -8 59 -8 126 1 115 -2
126 -29 120 -5 -1 -6 2 -2 7 5 4 14 8 20 8 6 0 12 20 14 45 1 25 3 50 4 55 1
6 0 17 -2 25 -3 9 6 16 26 20 21 3 31 11 33 28 2 12 -2 22 -7 22 -6 0 -10 -6
-8 -12 1 -7 -9 -14 -23 -15 -22 -2 -22 -1 -4 5 12 4 20 14 19 24 -2 11 2 15
11 11 9 -3 14 1 14 12 0 10 -4 13 -12 9 -10 -6 -10 -4 -3 7 14 19 20 123 6
115 -5 -4 -13 -2 -16 4 -4 6 -1 9 6 8 8 -2 13 16 16 56 3 37 1 56 -6 52 -5 -4
-13 -2 -16 4 -4 6 -1 9 5 8 13 -3 18 13 23 76 4 47 18 55 34 20 11 -23 10 -25
-5 -19 -13 5 -14 3 -5 -6 24 -24 39 8 19 40 -6 9 -5 12 1 8 6 -4 10 13 12 41
1 26 4 55 7 65 3 9 0 17 -6 17 -6 0 -8 5 -5 10 4 6 11 7 17 4 6 -4 5 2 -1 15
-7 12 -8 21 -4 20 4 -1 15 -1 23 0 13 1 13 3 0 10 -8 6 -19 7 -25 4 -5 -4 -6
-2 -2 3 14 15 31 11 44 -11 7 -11 12 -15 13 -8 0 7 7 10 18 7 13 -5 14 -4 3 4
-7 5 -11 14 -7 20 3 6 -1 15 -10 20 -15 8 -15 10 0 15 10 4 15 3 11 -3 -8 -13
1 -13 27 1 15 8 19 8 14 0 -4 -6 -2 -11 3 -11 6 0 11 5 11 11 0 6 13 8 31 5
28 -4 31 -3 26 20 -2 13 0 24 5 24 5 0 6 5 3 10 -3 6 -1 10 5 10 6 0 8 5 4 12
-4 7 -3 8 5 4 6 -4 9 -11 6 -16 -3 -4 2 -11 11 -14 10 -4 14 -12 9 -24 -5 -13
-4 -14 6 -5 10 10 9 15 0 27 -16 19 -5 56 17 56 15 0 15 2 2 10 -11 7 -6 10
21 10 24 0 36 5 37 15 1 8 3 22 4 30 1 13 47 22 82 16 16 -3 46 11 41 19 -3 5
3 11 12 13 13 3 11 5 -7 7 -14 1 -32 2 -40 1 -13 -2 -13 0 -1 8 8 5 21 7 29 3
10 -3 13 -1 8 6 -4 7 -1 12 8 12 8 0 20 -8 26 -18 9 -14 10 -12 5 13 -6 29 -6
29 10 10 16 -20 16 -20 12 2 -3 12 0 25 7 28 6 3 1 3 -12 1 -12 -2 -20 0 -16
5 3 5 12 9 20 9 8 0 12 5 9 10 -3 6 -2 10 4 10 5 0 11 -5 13 -11 2 -7 15 -6
38 5 19 9 27 14 18 11 -11 -3 -18 1 -18 10 0 18 -11 19 -30 3 -12 -11 -12 -10
-1 5 7 9 20 17 27 17 8 0 14 6 14 13 0 8 3 8 9 -2 7 -11 10 -10 14 5 4 16 5
17 6 2 2 -29 21 -20 22 10 1 15 1 31 0 36 -3 16 22 24 46 15 14 -5 23 -5 23 1
0 5 8 6 18 3 10 -4 5 5 -12 20 -16 15 -24 27 -17 27 6 0 11 6 11 14 0 8 7 17
16 20 14 5 15 4 4 -9 -7 -9 -10 -19 -6 -22 4 -4 12 -1 17 7 8 11 9 8 5 -12 -4
-18 -2 -28 5 -28 7 0 9 3 6 6 -3 4 -1 16 5 28 7 11 11 31 9 44 -2 18 2 22 27
22 18 0 32 6 36 16 8 21 8 26 -2 20 -5 -3 -9 1 -9 9 0 8 5 11 10 8 6 -4 8 1 4
11 -5 11 -3 15 5 10 8 -5 9 -1 5 12 -7 18 -7 18 8 0 8 -11 15 -16 15 -12 0 5
7 3 15 -4 18 -15 19 -1 1 22 -7 10 -16 15 -20 11 -4 -4 -4 0 0 10 6 16 7 16
18 2 10 -14 12 -10 14 22 4 56 12 79 23 62 12 -20 11 -31 -3 -23 -7 5 -8 3 -3
-6 6 -10 12 -7 24 9 22 28 26 72 7 65 -8 -3 -17 -1 -20 4 -3 5 2 9 12 8 12 -1
18 8 20 31 4 38 15 42 30 10 l10 -22 -1 22 c-1 13 -5 23 -9 23 -4 0 -8 5 -8
10 0 18 17 10 27 -12 9 -19 11 -14 12 32 3 84 3 84 13 97 6 7 14 10 19 7 5 -3
9 0 9 7 0 7 2 10 5 7 12 -12 -8 -39 -24 -33 -12 5 -13 3 -5 -5 9 -9 17 -9 32
-1 16 9 19 16 13 38 -4 15 -13 29 -20 31 -9 3 -11 0 -6 -9 5 -8 4 -10 0 -6 -5
4 -10 14 -11 22 -2 11 2 12 16 5 10 -6 20 -10 22 -10 6 0 1 126 -6 138 -5 8
-2 10 10 5 13 -5 15 -3 6 13 -7 14 -6 24 3 38 8 10 11 25 8 34 -4 14 -3 15 5
3 7 -10 7 -21 1 -32 -6 -13 -5 -17 6 -15 8 1 17 5 21 9 12 12 13 121 1 136 -7
8 -7 12 -2 9 7 -5 11 39 12 132 0 87 -3 137 -9 134 -6 -4 -6 0 0 12 13 25 13
84 1 84 -6 0 -7 6 -3 13 5 8 4 9 -4 2 -5 -5 -13 -19 -16 -30 -3 -11 -4 -2 -2
20 4 40 4 40 -8 11 -10 -22 -14 -25 -19 -12 -3 8 -2 18 3 21 6 4 10 11 10 16
0 6 -4 8 -9 5 -5 -4 -8 12 -7 36 1 24 -1 51 -6 61 -6 11 -5 17 2 17 7 0 8 6 2
18 -5 9 -7 24 -5 32 3 8 -1 6 -10 -5 -11 -15 -12 -22 -4 -27 9 -6 8 -8 -1 -8
-7 0 -10 -5 -6 -12 4 -7 3 -8 -5 -4 -6 4 -9 12 -6 17 4 5 -2 12 -11 16 -17 6
-17 7 0 13 10 3 17 10 16 15 -1 5 7 13 17 17 16 7 16 8 -2 5 -11 -2 -19 -9
-17 -15 1 -7 -5 -12 -13 -12 -18 0 -20 26 -2 33 10 4 10 6 0 6 -7 1 -13 10
-13 21 0 11 -5 20 -11 20 -6 0 -3 7 5 16 9 8 14 19 11 23 -2 5 -5 31 -6 60 -1
29 -7 51 -13 51 -6 0 -4 5 4 10 12 8 10 9 -9 7 -14 -2 -28 -12 -31 -23 -7 -18
-13 43 -11 103 0 13 -8 27 -20 34 -12 6 -19 7 -16 2 4 -5 0 -10 -8 -10 -8 0
-15 3 -16 6 0 3 -2 14 -4 24 -2 9 1 17 7 17 6 0 7 -8 3 -17 -5 -15 -4 -16 7
-5 11 11 10 16 -4 26 -10 7 -15 23 -14 40 2 15 -2 30 -9 32 -7 3 -12 13 -10
22 1 9 0 11 -2 4 -3 -7 -9 -9 -15 -6 -6 4 -8 2 -4 -4 3 -6 2 -13 -4 -17 -11
-7 -11 -5 -14 35 0 14 -5 31 -10 39 -7 10 -6 12 4 6 9 -5 11 -4 6 3 -11 17
-13 82 -4 82 5 0 6 5 3 10 -4 6 -12 7 -18 3 -7 -4 -7 0 1 10 8 9 11 21 7 27
-3 5 -3 10 2 10 8 0 8 79 0 167 -2 24 0 44 4 45 4 2 1 12 -8 23 -12 16 -14 16
-10 3 3 -10 2 -20 -3 -23 -6 -4 -10 -2 -10 4 0 6 -6 8 -14 5 -8 -3 -14 1 -13
8 2 52 -2 58 -40 58 -28 0 -34 3 -23 10 13 9 13 10 0 10 -10 1 -7 7 10 22 16
14 19 19 8 15 -12 -4 -18 -1 -18 9 0 9 -5 12 -12 8 -10 -6 -10 -4 0 7 6 7 12
17 12 22 0 4 -6 5 -12 1 -9 -5 -9 -2 1 9 11 14 11 17 0 17 -9 0 -10 3 -4 8 12
8 14 112 2 105 -5 -3 -11 4 -14 16 -3 12 -9 21 -14 21 -5 0 -4 -12 1 -27 9
-25 8 -26 -3 -11 -8 10 -17 15 -21 11 -3 -4 -4 10 -2 30 4 27 1 39 -12 46 -10
6 -12 11 -4 11 8 0 12 17 12 50 0 33 -4 50 -12 50 -10 0 -10 2 0 9 8 4 12 23
10 44 -2 38 -18 53 -18 18 0 -11 -5 -23 -10 -26 -6 -4 -9 -2 -8 3 2 5 -8 19
-22 31 -14 13 -19 20 -12 16 10 -5 13 5 11 42 -3 61 -5 64 -34 53 -24 -9 -25
-8 -25 25 0 21 -6 38 -17 45 -15 10 -15 11 -1 6 17 -5 19 9 4 33 -6 10 -5 12
2 7 7 -4 12 -2 12 3 0 6 -8 11 -19 11 -24 0 -45 25 -37 45 3 9 2 13 -4 10 -5
-3 -15 3 -22 15 -7 11 -16 20 -21 20 -4 0 -5 -5 -1 -12 5 -7 3 -8 -5 -3 -10 5
-10 10 -1 19 8 8 15 7 24 -7 12 -15 14 -16 20 -2 3 8 1 15 -5 15 -6 0 -9 7 -6
15 5 11 0 13 -22 9 -38 -8 -47 10 -20 37 16 16 17 21 6 16 -10 -4 -20 0 -26
11 -5 9 -13 14 -17 10 -4 -4 -2 -14 5 -21 8 -11 6 -18 -12 -33 l-22 -19 19 23
c20 23 20 23 -2 29 -12 3 -23 10 -23 17 -1 6 -2 34 -4 61 -3 72 -3 73 -25 45
-15 -18 -18 -20 -13 -6 4 12 3 17 -4 13 -6 -4 -17 1 -24 10 -12 14 -12 16 0 8
11 -6 13 -4 8 7 -3 9 0 21 6 28 9 10 9 11 0 6 -7 -4 -13 -2 -13 4 0 6 -8 10
-17 9 -36 -3 -43 2 -43 32 0 17 -4 28 -10 24 -5 -3 -10 2 -11 12 0 16 -1 16
-7 2 -5 -12 -13 -14 -29 -8 -13 5 -23 11 -23 14 0 4 5 3 10 0 6 -3 10 5 10 18
0 23 -3 25 -56 26 -34 0 -66 -6 -82 -15 -23 -14 -25 -14 -8 -1 17 15 16 16
-15 15 -19 -1 -28 -3 -21 -6z m129 -8 c-3 -3 -12 -4 -19 -1 -8 3 -5 6 6 6 11
1 17 -2 13 -5z m-37 -8 c0 -2 -8 -10 -17 -17 -16 -13 -17 -12 -4 4 13 16 21
21 21 13z m65 -6 c-27 -12 -43 -12 -25 0 8 5 22 9 30 9 10 0 8 -3 -5 -9z
m-105 -14 c0 -2 -9 -6 -20 -9 -11 -3 -20 -1 -20 4 0 5 9 9 20 9 11 0 20 -2 20
-4z m-192 -111 c-3 -3 -9 2 -12 12 -6 14 -5 15 5 6 7 -7 10 -15 7 -18z m-1504
7 c2 -4 -5 -9 -17 -9 -17 -2 -19 0 -7 7 18 12 18 12 24 2z m41 -10 c-3 -3 -11
0 -18 7 -9 10 -8 11 6 5 10 -3 15 -9 12 -12z m40 8 c3 -6 -1 -7 -9 -4 -18 7
-21 14 -7 14 6 0 13 -4 16 -10z m1405 -10 c6 -11 9 -20 8 -20 -2 0 -11 9 -21
20 -9 11 -13 20 -7 20 5 0 14 -9 20 -20z m450 8 c0 -4 -9 -7 -20 -5 -29 5 -33
13 -5 13 14 0 25 -4 25 -8z m-2019 -65 c12 -16 12 -17 -2 -6 -9 7 -20 9 -24 5
-5 -4 -5 -1 -1 6 9 16 11 15 27 -5z m1506 -5 c2 -17 0 -19 -7 -8 -5 8 -6 18
-4 22 8 12 10 10 11 -14z m-46 -3 c5 4 6 -2 2 -11 -4 -11 -8 -13 -11 -6 -2 7
-8 10 -13 7 -5 -4 -6 2 -2 11 4 11 8 13 11 6 2 -7 8 -10 13 -7z m-1555 -7 c4
-7 4 -10 -1 -6 -4 4 -14 3 -22 -3 -8 -8 -13 -8 -13 -1 0 6 6 13 13 15 6 3 13
6 14 6 1 1 5 -5 9 -11z m59 -6 c-3 -3 -11 0 -18 7 -9 10 -8 11 6 5 10 -3 15
-9 12 -12z m2125 8 c0 -5 -2 -10 -4 -10 -3 0 -8 5 -11 10 -3 6 -1 10 4 10 6 0
11 -4 11 -10z m-1169 -57 c-12 -20 -14 -14 -5 12 4 9 9 14 11 11 3 -2 0 -13
-6 -23z m199 18 c0 -5 -7 -11 -14 -14 -10 -4 -13 -1 -9 9 6 15 23 19 23 5z
m-1300 -17 c0 -2 -7 -4 -15 -4 -8 0 -15 4 -15 10 0 5 7 7 15 4 8 -4 15 -8 15
-10z m584 -24 c-6 -6 -10 -3 -10 10 0 13 4 16 10 10 7 -7 7 -13 0 -20z m556
26 c0 -2 -7 -7 -16 -10 -8 -3 -12 -2 -9 4 6 10 25 14 25 6z m445 -5 c3 -5 2
-12 -3 -15 -5 -3 -9 1 -9 9 0 17 3 19 12 6z m-1611 -19 c3 -5 -1 -9 -9 -9 -8
0 -15 4 -15 9 0 4 4 8 9 8 6 0 12 -4 15 -8z m1453 -32 c-1 -21 -10 -18 -13 5
-1 8 2 15 6 15 5 0 8 -9 7 -20z m-587 -32 c0 -17 -45 0 -47 18 -3 18 -3 18 5
0 6 -14 11 -16 16 -8 4 7 4 18 1 25 -4 6 1 3 9 -7 9 -11 16 -23 16 -28z m-66
16 c3 -8 2 -12 -4 -9 -6 3 -10 10 -10 16 0 14 7 11 14 -7z m241 6 c3 -6 -1 -7
-9 -4 -18 7 -21 14 -7 14 6 0 13 -4 16 -10z m350 -10 c3 -6 -1 -7 -9 -4 -18 7
-21 14 -7 14 6 0 13 -4 16 -10z m-365 -4 c0 -2 -7 -7 -16 -10 -8 -3 -12 -2 -9
4 6 10 25 14 25 6z m-1700 -121 c-7 -8 -18 -15 -24 -15 -6 0 -2 7 8 15 25 19
32 19 16 0z m3118 -8 c20 -22 21 -23 2 -23 -10 0 -17 2 -15 4 2 3 0 13 -6 23
-13 25 -7 24 19 -4z m-3043 3 c3 -6 -1 -7 -9 -4 -18 7 -21 14 -7 14 6 0 13 -4
16 -10z m75 6 c0 -2 -7 -7 -16 -10 -8 -3 -12 -2 -9 4 6 10 25 14 25 6z m45 -6
c3 -6 -1 -7 -9 -4 -18 7 -21 14 -7 14 6 0 13 -4 16 -10z m75 6 c0 -2 -7 -7
-16 -10 -8 -3 -12 -2 -9 4 6 10 25 14 25 6z m45 -6 c3 -6 -1 -7 -9 -4 -18 7
-21 14 -7 14 6 0 13 -4 16 -10z m75 6 c0 -2 -7 -7 -16 -10 -8 -3 -12 -2 -9 4
6 10 25 14 25 6z m45 -6 c3 -6 -1 -7 -9 -4 -18 7 -21 14 -7 14 6 0 13 -4 16
-10z m75 6 c0 -2 -7 -7 -16 -10 -8 -3 -12 -2 -9 4 6 10 25 14 25 6z m-587 -49
c3 -8 2 -20 -3 -26 -5 -9 -7 -4 -7 13 0 29 2 32 10 13z m3207 -7 c0 -5 -2 -10
-4 -10 -3 0 -8 5 -11 10 -3 6 -1 10 4 10 6 0 11 -4 11 -10z m90 -104 c0 -2 -7
-6 -15 -10 -8 -3 -15 -1 -15 4 0 6 7 10 15 10 8 0 15 -2 15 -4z m-3 -38 c-3
-8 -6 -5 -6 6 -1 11 2 17 5 13 3 -3 4 -12 1 -19z m37 -124 c5 -14 4 -15 -9 -4
-17 14 -19 20 -6 20 5 0 12 -7 15 -16z m-3328 -24 c0 -12 -4 -16 -9 -11 -5 5
-6 14 -3 20 10 15 12 14 12 -9z m6 -205 c-8 -16 -9 -16 -15 -1 -4 10 -3 15 3
11 6 -3 10 -1 10 6 0 7 3 10 6 6 3 -3 2 -13 -4 -22z m3372 -6 c-4 -8 1 -9 17
-5 20 6 21 5 6 -4 -19 -12 -41 -4 -32 11 4 5 8 9 11 9 3 0 2 -5 -2 -11z
m-3318 -94 c-1 -8 -5 -17 -8 -21 -5 -4 -4 16 1 34 3 9 9 -1 7 -13z m3368 -73
c3 -5 -1 -9 -9 -9 -8 0 -12 4 -9 9 3 4 7 8 9 8 2 0 6 -4 9 -8z m53 -94 c2 -12
1 -19 -2 -16 -3 3 -8 16 -10 28 -2 12 -1 20 2 16 4 -4 8 -16 10 -28z m-4108
-42 c9 -11 8 -17 -3 -29 -8 -8 -13 -17 -10 -20 3 -3 2 -7 -3 -10 -5 -3 -9 8
-10 25 0 18 2 25 7 18 5 -8 10 -9 14 -2 4 6 -2 15 -11 21 -10 6 -13 11 -7 11
6 0 17 -6 23 -14z m121 0 c0 -2 -8 -10 -17 -17 -16 -13 -17 -12 -4 4 13 16 21
21 21 13z m170 0 c0 -3 -4 -8 -10 -11 -5 -3 -10 -1 -10 4 0 6 5 11 10 11 6 0
10 -2 10 -4z m80 0 c0 -3 -4 -8 -10 -11 -5 -3 -10 -1 -10 4 0 6 5 11 10 11 6
0 10 -2 10 -4z m3795 -15 c3 -5 0 -13 -6 -17 -7 -4 -9 -3 -5 4 3 5 0 13 -6 15
-9 4 -10 6 -1 6 6 1 14 -3 18 -8z m-3675 -5 c0 -3 -4 -8 -10 -11 -5 -3 -10 -1
-10 4 0 6 5 11 10 11 6 0 10 -2 10 -4z m3648 -21 c-3 -3 -9 2 -12 12 -6 14 -5
15 5 6 7 -7 10 -15 7 -18z m3 -92 c13 -16 12 -17 -3 -4 -10 7 -18 15 -18 17 0
8 8 3 21 -13z m-4135 -75 c4 -7 4 -10 -1 -6 -4 4 -15 2 -24 -5 -14 -11 -14
-10 -2 6 16 20 18 21 27 5z m-16 -98 c0 -5 -4 -10 -10 -10 -5 0 -10 5 -10 10
0 6 5 10 10 10 6 0 10 -4 10 -10z m30 -14 c0 -2 -7 -7 -16 -10 -8 -3 -12 -2
-9 4 6 10 25 14 25 6z m27 -61 c0 -8 -4 -12 -9 -9 -5 3 -6 10 -3 15 9 13 12
11 12 -6z m4180 -77 c2 -18 0 -20 -7 -8 -12 18 -13 30 -2 30 4 0 9 -10 9 -22z
m-19 -23 c-3 -3 -9 2 -12 12 -6 14 -5 15 5 6 7 -7 10 -15 7 -18z m89 -97 c-3
-8 -6 -5 -6 6 -1 11 2 17 5 13 3 -3 4 -12 1 -19z m-27 2 c0 -5 -2 -10 -4 -10
-3 0 -8 5 -11 10 -3 6 -1 10 4 10 6 0 11 -4 11 -10z m-4200 -14 c0 -2 -8 -10
-17 -17 -16 -13 -17 -12 -4 4 13 16 21 21 21 13z m4220 -15 c0 -9 -38 -12 -44
-3 -2 4 7 8 20 8 13 1 24 -1 24 -5z m53 -76 c4 -8 3 -16 -1 -19 -4 -3 -9 4 -9
15 -2 23 3 25 10 4z m14 -47 c-3 -8 -6 -5 -6 6 -1 11 2 17 5 13 3 -3 4 -12 1
-19z m-4287 -72 c0 -2 -7 -7 -16 -10 -8 -3 -12 -2 -9 4 6 10 25 14 25 6z
m4320 -171 c11 -13 10 -14 -4 -9 -9 3 -16 10 -16 15 0 13 6 11 20 -6z m-4320
-109 c0 -2 -7 -7 -16 -10 -8 -3 -12 -2 -9 4 6 10 25 14 25 6z m-5 -54 c-3 -3
-11 0 -18 7 -9 10 -8 11 6 5 10 -3 15 -9 12 -12z m4425 -34 c0 -6 -3 -8 -7 -5
-3 4 -12 2 -20 -5 -7 -6 -16 -8 -20 -4 -3 3 -1 6 6 6 7 0 10 4 7 8 -2 4 4 9
15 9 10 1 19 -3 19 -9z m-4425 -57 c3 -5 2 -12 -3 -15 -5 -3 -9 1 -9 9 0 17 3
19 12 6z m4400 -20 c3 -5 2 -12 -3 -15 -5 -3 -9 1 -9 9 0 17 3 19 12 6z
m-4402 -26 c4 -8 3 -16 -1 -19 -4 -3 -9 4 -9 15 -2 23 3 25 10 4z m4407 -11
c0 -8 -19 -13 -24 -6 -3 5 1 9 9 9 8 0 15 -2 15 -3z m-4365 -134 c-3 -5 -1
-10 6 -10 7 0 10 -3 6 -6 -9 -9 -28 6 -22 17 4 5 8 9 11 9 3 0 2 -4 -1 -10z
m4361 -70 c0 -12 -4 -16 -9 -11 -5 5 -6 14 -3 20 10 15 12 14 12 -9z m-4273
-47 c-3 -7 -9 -13 -15 -13 -5 0 -7 4 -4 9 4 5 0 11 -6 14 -7 3 -3 4 8 4 14 -1
20 -6 17 -14z m4271 9 c3 -5 -1 -9 -9 -9 -8 0 -12 4 -9 9 3 4 7 8 9 8 2 0 6
-4 9 -8z m15 -56 c-3 -3 -11 5 -18 17 -13 21 -12 21 5 5 10 -10 16 -20 13 -22z
m-4234 -5 c3 -5 0 -13 -6 -17 -7 -4 -9 -3 -5 4 3 5 0 13 -6 15 -9 4 -10 6 -1
6 6 1 14 -3 18 -8z m189 -59 c3 -5 -1 -9 -9 -9 -8 0 -15 4 -15 9 0 4 4 8 9 8
6 0 12 -4 15 -8z m3969 -7 c4 -8 3 -16 -1 -19 -4 -3 -9 4 -9 15 -2 23 3 25 10
4z m-18 -184 c3 -5 2 -12 -3 -15 -5 -3 -9 1 -9 9 0 17 3 19 12 6z m-45 -111
c-8 -5 -19 -10 -25 -10 -5 0 -3 5 5 10 8 5 20 10 25 10 6 0 3 -5 -5 -10z m-60
-140 c8 -5 11 -10 5 -10 -5 0 -17 5 -25 10 -8 5 -10 10 -5 10 6 0 17 -5 25
-10z m-3775 -88 c-3 -3 -11 0 -18 7 -9 10 -8 11 6 5 10 -3 15 -9 12 -12z m65
-86 c0 -2 -7 -7 -16 -10 -8 -3 -12 -2 -9 4 6 10 25 14 25 6z m3580 0 c0 -3 -4
-8 -10 -11 -5 -3 -10 -1 -10 4 0 6 5 11 10 11 6 0 10 -2 10 -4z m-3566 -51 c3
-8 1 -15 -4 -15 -6 0 -10 7 -10 15 0 8 2 15 4 15 2 0 6 -7 10 -15z m3523 -27
c2 -17 0 -19 -7 -8 -5 8 -6 18 -4 22 8 12 10 10 11 -14z m-3462 -58 c-1 -11
-4 -22 -7 -25 -4 -5 -4 34 1 43 4 8 7 -1 6 -18z m-28 -22 c-3 -8 -6 -5 -6 6
-1 11 2 17 5 13 3 -3 4 -12 1 -19z m3413 12 c0 -5 -5 -10 -11 -10 -5 0 -7 5
-4 10 3 6 8 10 11 10 2 0 4 -4 4 -10z m-3325 -70 c3 -6 -1 -7 -9 -4 -18 7 -21
14 -7 14 6 0 13 -4 16 -10z m42 -65 c0 -8 -4 -15 -9 -15 -10 0 -11 14 -1 23 9
10 10 9 10 -8z m120 -117 c2 -17 0 -19 -7 -8 -5 8 -6 18 -4 22 8 12 10 10 11
-14z m2857 -6 c3 -5 -1 -9 -9 -9 -8 0 -12 4 -9 9 3 4 7 8 9 8 2 0 6 -4 9 -8z
m-2781 -46 c-4 -5 1 -7 11 -3 10 4 15 3 11 -3 -8 -13 -18 -13 -39 3 -16 12
-16 13 3 13 11 0 17 -5 14 -10z m2707 -6 c6 -11 8 -20 6 -20 -3 0 -10 9 -16
20 -6 11 -8 20 -6 20 3 0 10 -9 16 -20z m-60 -50 c0 -5 -5 -10 -11 -10 -5 0
-7 5 -4 10 3 6 8 10 11 10 2 0 4 -4 4 -10z m-2516 -16 c5 -14 4 -15 -9 -4 -17
14 -19 20 -6 20 5 0 12 -7 15 -16z m2434 -59 c-3 -3 -9 2 -12 12 -6 14 -5 15
5 6 7 -7 10 -15 7 -18z m-27 -18 c-10 -9 -11 -8 -5 6 3 10 9 15 12 12 3 -3 0
-11 -7 -18z m-2218 -41 c21 4 21 4 2 -5 -23 -10 -35 -5 -34 12 0 9 2 9 5 1 3
-7 15 -10 27 -8z m2 -26 c-3 -5 -12 -10 -18 -10 -7 0 -6 4 3 10 19 12 23 12
15 0z m92 -52 c-3 -8 -6 -5 -6 6 -1 11 2 17 5 13 3 -3 4 -12 1 -19z m1984 -75
c13 -16 12 -17 -3 -4 -10 7 -18 15 -18 17 0 8 8 3 21 -13z m-28 -38 c-3 -9 -8
-14 -10 -11 -3 3 -2 9 2 15 9 16 15 13 8 -4z m24 -7 c-3 -8 -6 -5 -6 6 -1 11
2 17 5 13 3 -3 4 -12 1 -19z m-47 -88 c0 -5 -2 -10 -4 -10 -3 0 -8 5 -11 10
-3 6 -1 10 4 10 6 0 11 -4 11 -10z m-19 -137 c13 -16 12 -17 -3 -4 -17 13 -22
21 -14 21 2 0 10 -8 17 -17z m-1701 -63 c0 -5 -2 -10 -4 -10 -3 0 -8 5 -11 10
-3 6 -1 10 4 10 6 0 11 -4 11 -10z m1700 -60 c0 -5 -5 -10 -11 -10 -5 0 -7 5
-4 10 3 6 8 10 11 10 2 0 4 -4 4 -10z m-1870 -100 c-8 -5 -22 -9 -30 -9 -10 0
-8 3 5 9 27 12 43 12 25 0z m1805 -79 c3 -5 2 -12 -3 -15 -5 -3 -9 1 -9 9 0
17 3 19 12 6z m-1835 -121 c0 -5 -5 -10 -11 -10 -5 0 -7 5 -4 10 3 6 8 10 11
10 2 0 4 -4 4 -10z m25 -40 c3 -6 -1 -7 -9 -4 -18 7 -21 14 -7 14 6 0 13 -4
16 -10z m-10 -140 c-27 -12 -43 -12 -25 0 8 5 22 9 30 9 10 0 8 -3 -5 -9z m70
-40 c-3 -5 -12 -10 -18 -10 -7 0 -6 4 3 10 19 12 23 12 15 0z m153 -85 c-3 -3
-9 2 -12 12 -6 14 -5 15 5 6 7 -7 10 -15 7 -18z m-103 5 c-3 -5 -11 -10 -16
-10 -6 0 -7 5 -4 10 3 6 11 10 16 10 6 0 7 -4 4 -10z m18 -15 c-3 -9 -8 -14
-10 -11 -3 3 -2 9 2 15 9 16 15 13 8 -4z m167 -5 c0 -5 -2 -10 -4 -10 -3 0 -8
5 -11 10 -3 6 -1 10 4 10 6 0 11 -4 11 -10z m1568 -17 c0 -10 1 -24 3 -32 2
-7 -3 -16 -11 -18 -10 -3 -11 -2 -3 4 7 5 9 14 3 22 -4 8 -6 20 -3 28 7 18 12
16 11 -4z m-1508 -103 c0 -5 -4 -10 -10 -10 -5 0 -10 5 -10 10 0 6 5 10 10 10
6 0 10 -4 10 -10z m175 -39 c3 -5 2 -12 -3 -15 -5 -3 -9 1 -9 9 0 17 3 19 12
6z m125 -1 c0 -5 -5 -10 -11 -10 -5 0 -7 5 -4 10 3 6 8 10 11 10 2 0 4 -4 4
-10z m115 1 c3 -5 2 -12 -3 -15 -5 -3 -9 1 -9 9 0 17 3 19 12 6z m125 -1 c0
-5 -5 -10 -11 -10 -5 0 -7 5 -4 10 3 6 8 10 11 10 2 0 4 -4 4 -10z m115 1 c3
-5 2 -12 -3 -15 -5 -3 -9 1 -9 9 0 17 3 19 12 6z m125 -1 c0 -5 -5 -10 -11
-10 -5 0 -7 5 -4 10 3 6 8 10 11 10 2 0 4 -4 4 -10z m115 1 c3 -5 2 -12 -3
-15 -5 -3 -9 1 -9 9 0 17 3 19 12 6z m-815 -21 c0 -5 -5 -10 -11 -10 -5 0 -7
5 -4 10 3 6 8 10 11 10 2 0 4 -4 4 -10z m955 -39 c3 -6 -5 -15 -17 -21 -21
-10 -21 -10 -6 3 10 8 15 17 11 20 -3 4 -4 7 0 7 3 0 8 -4 12 -9z m300 -1 c3
-5 1 -10 -4 -10 -6 0 -11 5 -11 10 0 6 2 10 4 10 3 0 8 -4 11 -10z m-17 -28
c2 -7 -1 -12 -8 -12 -6 0 -8 5 -4 12 5 8 2 9 -10 5 -11 -4 -15 -3 -11 4 8 12
27 7 33 -9z m52 4 c0 -2 -7 -6 -15 -10 -8 -3 -15 -1 -15 4 0 6 7 10 15 10 8 0
15 -2 15 -4z"/>
<path d="M3785 5740 c-3 -5 -2 -10 4 -10 5 0 13 5 16 10 3 6 2 10 -4 10 -5 0
-13 -4 -16 -10z"/>
<path d="M3737 5694 c4 -11 3 -15 -5 -10 -6 3 -13 2 -16 -3 -4 -5 2 -8 11 -7
20 3 28 21 14 31 -7 4 -8 0 -4 -11z"/>
<path d="M4115 5700 c3 -6 1 -10 -6 -10 -7 0 -10 -3 -6 -6 3 -3 13 -2 22 4 16
8 16 9 1 15 -10 4 -15 3 -11 -3z"/>
<path d="M2371 5614 c0 -11 3 -14 6 -6 3 7 2 16 -1 19 -3 4 -6 -2 -5 -13z"/>
<path d="M4177 5615 c-4 -8 -1 -17 5 -21 7 -5 8 -2 3 6 -6 10 -4 12 10 6 15
-5 16 -4 5 9 -15 19 -16 19 -23 0z"/>
<path d="M3595 5610 c-3 -5 -1 -10 4 -10 6 0 11 5 11 10 0 6 -2 10 -4 10 -3 0
-8 -4 -11 -10z"/>
<path d="M2080 5600 c-9 -6 -10 -10 -3 -10 6 0 15 5 18 10 8 12 4 12 -15 0z"/>
<path d="M2327 5599 c7 -7 15 -10 18 -7 3 3 -2 9 -12 12 -14 6 -15 5 -6 -5z"/>
<path d="M1908 5563 c6 -2 9 -10 6 -15 -4 -7 -2 -8 4 -4 18 11 14 26 -5 25
-11 0 -13 -3 -5 -6z"/>
<path d="M3460 5538 c0 -4 7 -8 15 -8 8 0 15 4 15 8 0 5 -7 9 -15 9 -8 0 -15
-4 -15 -9z"/>
<path d="M2966 5505 c-3 -8 -1 -15 4 -15 6 0 10 7 10 15 0 8 -2 15 -4 15 -2 0
-6 -7 -10 -15z"/>
<path d="M4261 5503 c7 -12 15 -20 18 -17 3 2 -3 12 -13 22 -17 16 -18 16 -5
-5z"/>
<path d="M4230 5501 c0 -5 5 -13 10 -16 6 -3 10 -2 10 4 0 5 -4 13 -10 16 -5
3 -10 2 -10 -4z"/>
<path d="M3268 5483 c7 -3 16 -2 19 1 4 3 -2 6 -13 5 -11 0 -14 -3 -6 -6z"/>
<path d="M3308 5483 c7 -3 16 -2 19 1 4 3 -2 6 -13 5 -11 0 -14 -3 -6 -6z"/>
<path d="M2790 5440 c0 -5 5 -10 10 -10 6 0 10 5 10 10 0 6 -4 10 -10 10 -5 0
-10 -4 -10 -10z"/>
<path d="M2810 5420 c-8 -5 -10 -10 -5 -10 6 0 17 5 25 10 8 5 11 10 5 10 -5
0 -17 -5 -25 -10z"/>
<path d="M1840 5360 c-8 -5 -12 -11 -9 -14 2 -3 11 -1 19 4 8 5 12 11 9 14 -2
3 -11 1 -19 -4z"/>
<path d="M4377 5323 c-10 -10 -8 -33 3 -33 5 0 6 7 3 17 -5 12 -3 14 7 8 9 -5
11 -4 6 3 -8 14 -10 14 -19 5z"/>
<path d="M1145 5300 c10 -11 20 -20 23 -20 3 0 -3 9 -13 20 -10 11 -20 20 -23
20 -3 0 3 -9 13 -20z"/>
<path d="M4490 5058 c0 -11 12 -10 30 2 12 7 10 9 -8 7 -12 0 -22 -5 -22 -9z"/>
<path d="M4574 4819 c-3 -6 -2 -15 3 -20 5 -5 9 -1 9 11 0 23 -2 24 -12 9z"/>
<path d="M1131 4667 c2 -1 13 -9 24 -17 19 -14 19 -14 6 3 -7 9 -18 17 -24 17
-6 0 -8 -1 -6 -3z"/>
<path d="M4621 4534 c0 -11 3 -14 6 -6 3 7 2 16 -1 19 -3 4 -6 -2 -5 -13z"/>
<path d="M1125 4500 c-2 -3 7 -7 20 -8 13 -1 26 2 29 6 2 4 -7 7 -21 7 -14 0
-26 -2 -28 -5z"/>
<path d="M4685 4479 c-4 -6 -5 -12 -2 -15 2 -3 7 2 10 11 7 17 1 20 -8 4z"/>
<path d="M516 4025 c4 -8 8 -15 10 -15 2 0 4 7 4 15 0 8 -4 15 -10 15 -5 0 -7
-7 -4 -15z"/>
<path d="M4833 3915 c-3 -9 -3 -18 -1 -21 3 -3 8 4 11 16 6 23 -1 27 -10 5z"/>
<path d="M5015 3360 c3 -5 8 -10 11 -10 2 0 4 5 4 10 0 6 -5 10 -11 10 -5 0
-7 -4 -4 -10z"/>
<path d="M556 3098 c3 -4 11 -5 19 -1 21 7 19 12 -4 10 -11 0 -18 -5 -15 -9z"/>
<path d="M575 3081 c-3 -5 0 -13 6 -17 7 -4 9 -3 5 4 -3 6 2 13 11 15 16 4 16
5 1 6 -9 0 -19 -3 -23 -8z"/>
<path d="M626 2897 c3 -10 9 -15 12 -12 3 3 0 11 -7 18 -10 9 -11 8 -5 -6z"/>
<path d="M710 2830 c13 -24 17 -25 17 -5 0 8 -6 16 -14 19 -11 4 -11 1 -3 -14z"/>
<path d="M5015 2770 c-10 -11 -15 -23 -12 -27 4 -3 7 -1 7 6 0 7 5 9 13 5 6
-4 9 -4 5 1 -4 4 -3 14 3 22 18 21 4 15 -16 -7z"/>
<path d="M876 2759 c2 -4 13 -7 24 -6 10 1 17 4 14 8 -2 4 -13 7 -24 6 -10 -1
-17 -4 -14 -8z"/>
<path d="M4920 2511 c0 -6 4 -13 10 -16 6 -3 7 1 4 9 -7 18 -14 21 -14 7z"/>
<path d="M4950 2510 c0 -6 7 -10 15 -10 8 0 15 2 15 4 0 2 -7 6 -15 10 -8 3
-15 1 -15 -4z"/>
<path d="M4861 2384 c0 -11 3 -14 6 -6 3 7 2 16 -1 19 -3 4 -6 -2 -5 -13z"/>
<path d="M934 2339 c-4 -7 -3 -9 4 -5 6 3 15 -2 21 -11 6 -10 11 -13 11 -7 0
20 -27 37 -36 23z"/>
<path d="M4835 2271 c-3 -5 -2 -12 3 -15 5 -3 9 1 9 9 0 17 -3 19 -12 6z"/>
<path d="M4743 2164 c0 -7 6 -10 14 -7 7 3 13 8 13 12 0 4 -6 8 -13 8 -8 0
-14 -6 -14 -13z"/>
<path d="M1020 2156 c0 -2 7 -6 15 -10 8 -3 15 -1 15 4 0 6 -7 10 -15 10 -8 0
-15 -2 -15 -4z"/>
<path d="M4736 2121 c-3 -4 4 -7 14 -6 27 2 33 10 10 12 -11 1 -22 -2 -24 -6z"/>
<path d="M1060 2086 c0 -2 7 -6 15 -10 8 -3 15 -1 15 4 0 6 -7 10 -15 10 -8 0
-15 -2 -15 -4z"/>
<path d="M4684 2079 c-3 -6 -2 -15 4 -21 6 -6 12 -6 17 3 6 8 4 10 -5 4 -10
-6 -12 -4 -7 8 7 19 2 23 -9 6z"/>
<path d="M1101 2064 c0 -11 3 -14 6 -6 3 7 2 16 -1 19 -3 4 -6 -2 -5 -13z"/>
<path d="M4554 1973 c2 -9 8 -18 15 -19 6 -1 7 0 1 3 -5 2 -8 9 -5 13 3 5 1
11 -4 14 -5 4 -8 -2 -7 -11z"/>
<path d="M1135 1949 c-4 -6 -5 -12 -2 -15 2 -3 7 2 10 11 7 17 1 20 -8 4z"/>
<path d="M1185 1920 c3 -5 8 -10 11 -10 2 0 4 5 4 10 0 6 -5 10 -11 10 -5 0
-7 -4 -4 -10z"/>
<path d="M1201 1896 c-9 -10 -9 -16 -1 -21 6 -4 14 -4 17 -1 4 3 1 6 -6 6 -7
0 -9 5 -6 11 4 6 14 8 22 5 8 -3 11 -1 8 4 -9 14 -21 12 -34 -4z"/>
<path d="M1340 1780 c-9 -6 -10 -10 -3 -10 6 0 15 5 18 10 8 12 4 12 -15 0z"/>
<path d="M4234 1699 c-3 -6 -1 -16 5 -22 9 -9 11 -8 5 6 -5 13 -2 16 10 11 9
-3 16 -4 16 -1 0 11 -30 16 -36 6z"/>
<path d="M1415 1680 c3 -5 8 -10 11 -10 2 0 4 5 4 10 0 6 -5 10 -11 10 -5 0
-7 -4 -4 -10z"/>
<path d="M1540 1650 c0 -5 -6 -7 -14 -4 -8 3 -16 1 -20 -4 -3 -5 5 -8 16 -7
19 1 41 25 24 25 -3 0 -6 -4 -6 -10z"/>
<path d="M4187 1633 c3 -7 6 -13 8 -13 1 0 7 6 13 13 8 10 6 13 -7 13 -11 0
-17 -6 -14 -13z"/>
<path d="M4144 1629 c-3 -6 -2 -15 3 -20 5 -5 9 -1 10 11 2 22 -2 25 -13 9z"/>
<path d="M1580 1580 c-9 -6 -10 -10 -3 -10 6 0 15 5 18 10 8 12 4 12 -15 0z"/>
<path d="M1700 1526 c0 -2 7 -6 15 -10 8 -3 15 -1 15 4 0 6 -7 10 -15 10 -8 0
-15 -2 -15 -4z"/>
<path d="M3990 1510 c0 -5 5 -10 10 -10 6 0 10 5 10 10 0 6 -4 10 -10 10 -5 0
-10 -4 -10 -10z"/>
<path d="M1695 1501 c-3 -5 -2 -12 3 -15 5 -3 9 1 9 9 0 17 -3 19 -12 6z"/>
<path d="M1828 1458 c5 -5 16 -8 23 -6 8 3 3 7 -10 11 -17 4 -21 3 -13 -5z"/>
<path d="M3930 1463 c5 -2 8 -9 5 -13 -3 -5 5 -14 17 -20 22 -11 22 -11 3 5
-11 9 -19 19 -17 23 2 3 -1 7 -8 8 -6 2 -7 1 0 -3z"/>
<path d="M1897 1389 c7 -7 15 -10 18 -7 3 3 -2 9 -12 12 -14 6 -15 5 -6 -5z"/>
<path d="M1960 1306 c0 -2 7 -7 16 -10 8 -3 12 -2 9 4 -6 10 -25 14 -25 6z"/>
<path d="M3850 1240 c0 -5 5 -10 11 -10 5 0 7 5 4 10 -3 6 -8 10 -11 10 -2 0
-4 -4 -4 -10z"/>
<path d="M2038 1133 c7 -3 16 -2 19 1 4 3 -2 6 -13 5 -11 0 -14 -3 -6 -6z"/>
<path d="M2013 1115 c0 -8 4 -12 9 -9 5 3 6 10 3 15 -9 13 -12 11 -12 -6z"/>
<path d="M2040 1015 c-7 -9 -11 -17 -9 -20 3 -2 10 5 17 15 14 24 10 26 -8 5z"/>
<path d="M2051 984 c0 -11 3 -14 6 -6 3 7 2 16 -1 19 -3 4 -6 -2 -5 -13z"/>
<path d="M1973 973 c4 -6 0 -13 -8 -17 -18 -6 -20 -26 -3 -26 6 0 8 3 5 7 -4
3 1 11 10 18 13 9 13 14 3 20 -8 5 -11 4 -7 -2z"/>
<path d="M1828 833 c6 -2 9 -10 6 -15 -4 -7 -2 -8 4 -4 18 11 14 26 -5 25 -11
0 -13 -3 -5 -6z"/>
<path d="M3790 831 c0 -6 4 -13 10 -16 6 -3 7 1 4 9 -7 18 -14 21 -14 7z"/>
<path d="M1847 796 c-3 -7 0 -19 6 -26 10 -10 8 -10 -9 -2 -19 10 -21 8 -19
-16 3 -41 4 -44 17 -36 8 5 9 2 5 -9 -4 -10 -2 -17 4 -17 6 0 9 9 6 20 -3 11
-2 20 2 20 11 0 11 39 -1 46 -7 4 -6 9 2 14 8 5 8 10 2 14 -5 3 -12 0 -15 -8z
m3 -56 c0 -5 -4 -10 -10 -10 -5 0 -10 5 -10 10 0 6 5 10 10 10 6 0 10 -4 10
-10z"/>
<path d="M3815 800 c-3 -5 -1 -10 4 -10 6 0 11 5 11 10 0 6 -2 10 -4 10 -3 0
-8 -4 -11 -10z"/>
<path d="M1828 663 c6 -2 18 -2 25 0 6 3 1 5 -13 5 -14 0 -19 -2 -12 -5z"/>
<path d="M1894 458 c-4 -7 -4 -10 1 -6 4 4 15 2 24 -5 14 -11 14 -10 2 6 -16
20 -18 21 -27 5z"/>
<path d="M3796 462 c-2 -4 -1 -14 4 -22 7 -11 9 -9 7 8 -1 24 -3 26 -11 14z"/>
<path d="M2214 301 c16 -18 36 -20 36 -5 0 3 -4 2 -10 -1 -5 -3 -10 -2 -10 3
0 6 -8 13 -17 16 -15 6 -15 5 1 -13z"/>
<path d="M3784 239 c-4 -7 -3 -9 4 -5 5 3 13 0 15 -6 4 -9 6 -10 6 -1 1 17
-16 25 -25 12z"/>
<path d="M2288 193 c-22 -5 -24 -20 -3 -20 8 0 16 6 19 14 3 7 4 12 3 12 -1
-1 -10 -3 -19 -6z"/>
<path d="M3740 190 c-8 -5 -11 -12 -7 -16 3 -4 13 -2 20 4 10 9 14 8 14 -3 0
-8 -4 -12 -9 -9 -4 3 -8 0 -8 -6 0 -7 6 -10 13 -7 14 4 16 39 2 44 -5 1 -17
-2 -25 -7z"/>
<path d="M3219 128 c-6 -21 -5 -37 2 -32 5 3 7 9 4 14 -3 5 5 11 17 13 l23 4
-22 2 c-13 0 -23 0 -24 -1z"/>
<path d="M3695 120 c-3 -5 -1 -10 4 -10 6 0 11 5 11 10 0 6 -2 10 -4 10 -3 0
-8 -4 -11 -10z"/>
</g>
</svg>
